# MagicaVoxel @ Ephtracy

# group
o 

# material
mtllib 2.mtl
usemtl palette

# normals
vn -1 0 0
vn 1 0 0
vn 0 0 1
vn 0 0 -1
vn 0 -1 0
vn 0 1 0

# texcoords
vt 0.00976562 0.5
vt 0.0136719 0.5
vt 0.505859 0.5
vt 0.533203 0.5

# verts
v -1.4 0 1.4
v -1.4 0 -1.4
v -1.4 3.4 1.4
v -1.4 3.4 -1.4
v -1.1 3.3 1.1
v -1.1 3.3 0.8
v -1.1 3.5 1.1
v -1.1 3.5 0.8
v -1 0 -1.4
v -1 0 -1.7
v -1 0.2 -1.4
v -1 0.2 -1.7
v -1 3.3 0.8
v -1 3.3 0.7
v -1 3.4 0.8
v -1 3.4 0.7
v -0.8 3.3 0.8
v -0.8 3.3 0.7
v -0.8 3.4 0.8
v -0.8 3.4 0.7
v -0.2 0.2 1.4
v -0.2 0.2 1.3
v -0.2 0.5 1.4
v -0.2 0.5 1.3
v -0.2 0.8 1.4
v -0.2 0.8 1.3
v -0.2 1.1 1.4
v -0.2 1.1 1.3
v -0.2 3.3 1.2
v -0.2 3.3 -0.2
v -0.2 3.4 1.2
v -0.2 3.4 -0.2
v 0.2 0 -1.4
v 0.2 0 -1.7
v 0.2 0.2 -1.4
v 0.2 0.2 -1.7
v 0.6 3.3 -0.7
v 0.6 3.3 -0.8
v 0.6 3.3 -0.9
v 0.6 3.3 -1
v 0.6 3.4 -0.7
v 0.6 3.4 -0.8
v 0.6 3.4 -0.9
v 0.6 3.4 -1
v 0.7 3.3 -0.6
v 0.7 3.3 -0.7
v 0.7 3.3 -0.8
v 0.7 3.3 -0.9
v 0.7 3.3 -1
v 0.7 3.3 -1.1
v 0.7 3.4 -0.7
v 0.7 3.4 -0.8
v 0.7 3.4 -0.9
v 0.7 3.4 -1
v 0.7 3.5 -0.6
v 0.7 3.5 -1.1
v 1.1 0 0
v 1.1 0 -0.1
v 1.1 1 0
v 1.1 1 -0.1
v 1.2 3.3 -0.2
v 1.2 3.3 -1.2
v 1.2 3.4 -0.2
v 1.2 3.4 -1.2
v -1.2 0.2 1.4
v -1.2 0.2 1.3
v -1.2 0.5 1.4
v -1.2 0.5 1.3
v -1.2 0.8 1.4
v -1.2 0.8 1.3
v -1.2 1.1 1.4
v -1.2 1.1 1.3
v -1.2 1.5 1.4
v -1.2 1.5 1.3
v -1.2 1.8 1.4
v -1.2 1.8 1.3
v -1.2 2.1 1.4
v -1.2 2.1 1.3
v -1.2 2.4 1.4
v -1.2 2.4 1.3
v -1.2 2.7 1.4
v -1.2 2.7 1.3
v -1.2 3 1.4
v -1.2 3 1.3
v -1.2 3.3 1.2
v -1.2 3.3 -1.2
v -1.2 3.4 1.2
v -1.2 3.4 -1.2
v -0.9 3.3 0.8
v -0.9 3.3 0.7
v -0.9 3.4 0.8
v -0.9 3.4 0.7
v -0.7 3.3 0.8
v -0.7 3.3 0.7
v -0.7 3.4 0.8
v -0.7 3.4 0.7
v -0.6 3.3 1.1
v -0.6 3.3 0.8
v -0.6 3.5 1.1
v -0.6 3.5 0.8
v -0.5 0 -1.4
v -0.5 0 -1.7
v -0.5 0.2 -1.4
v -0.5 0.2 -1.7
v -0.1 0.2 1.2
v -0.1 0.2 0.2
v -0.1 0.5 1.2
v -0.1 0.5 0.2
v -0.1 0.8 1.2
v -0.1 0.8 0.2
v -0.1 1.1 1.2
v -0.1 1.1 0.2
v -0.1 1.5 1.3
v -0.1 1.5 -0.1
v -0.1 1.8 1.3
v -0.1 1.8 -0.1
v -0.1 2.1 1.3
v -0.1 2.1 -0.1
v -0.1 2.4 1.3
v -0.1 2.4 -0.1
v -0.1 2.7 1.3
v -0.1 2.7 -0.1
v -0.1 3 1.3
v -0.1 3 -0.1
v 0 0 1.4
v 0 0 0
v 0 0.2 1.2
v 0 0.2 0.2
v 0 0.5 1.2
v 0 0.5 0.2
v 0 0.8 1.2
v 0 0.8 0.2
v 0 1.1 1.2
v 0 1.1 0.2
v 0 1.5 1.4
v 0 1.5 0
v 0 1.8 1.4
v 0 1.8 0
v 0 2.1 1.4
v 0 2.1 0
v 0 2.4 1.4
v 0 2.4 0
v 0 2.7 1.4
v 0 2.7 0
v 0 3 1.4
v 0 3 0
v 0 3.4 1.4
v 0 3.4 0
v 0.3 0 0
v 0.3 0 -0.1
v 0.3 1 0
v 0.3 1 -0.1
v 0.7 0 -1.4
v 0.7 0 -1.7
v 0.7 0.2 -1.4
v 0.7 0.2 -1.7
v 1 3.3 -0.6
v 1 3.3 -1.1
v 1 3.5 -0.6
v 1 3.5 -1.1
v 1.3 0.4 -0.2
v 1.3 0.4 -1.2
v 1.3 1 -0.2
v 1.3 1 -1.2
v 1.3 1.5 -0.1
v 1.3 1.5 -1.2
v 1.3 1.8 -0.1
v 1.3 1.8 -1.2
v 1.3 2.1 -0.1
v 1.3 2.1 -1.2
v 1.3 2.4 -0.1
v 1.3 2.4 -1.2
v 1.3 2.7 -0.1
v 1.3 2.7 -1.2
v 1.3 3 -0.1
v 1.3 3 -1.2
v 1.4 0 0
v 1.4 0 -1.4
v 1.4 0.4 -0.2
v 1.4 0.4 -1.2
v 1.4 1 -0.2
v 1.4 1 -1.2
v 1.4 1.5 0
v 1.4 1.5 -1.2
v 1.4 1.8 0
v 1.4 1.8 -1.2
v 1.4 2.1 0
v 1.4 2.1 -1.2
v 1.4 2.4 0
v 1.4 2.4 -1.2
v 1.4 2.7 0
v 1.4 2.7 -1.2
v 1.4 3 0
v 1.4 3 -1.2
v 1.4 3.4 0
v 1.4 3.4 -1.4
v -1.4 0 1.4
v -1.4 3.4 1.4
v -1.2 0.2 1.4
v -1.2 0.5 1.4
v -1.2 0.8 1.4
v -1.2 1.1 1.4
v -1.2 1.5 1.4
v -1.2 1.8 1.4
v -1.2 2.1 1.4
v -1.2 2.4 1.4
v -1.2 2.7 1.4
v -1.2 3 1.4
v -0.2 0.2 1.4
v -0.2 0.5 1.4
v -0.2 0.8 1.4
v -0.2 1.1 1.4
v 0 0 1.4
v 0 1.5 1.4
v 0 1.8 1.4
v 0 2.1 1.4
v 0 2.4 1.4
v 0 2.7 1.4
v 0 3 1.4
v 0 3.4 1.4
v -1.2 0.2 1.3
v -1.2 0.5 1.3
v -1.2 0.8 1.3
v -1.2 1.1 1.3
v -1.2 1.5 1.3
v -1.2 1.8 1.3
v -1.2 2.1 1.3
v -1.2 2.4 1.3
v -1.2 2.7 1.3
v -1.2 3 1.3
v -0.2 0.2 1.3
v -0.2 0.5 1.3
v -0.2 0.8 1.3
v -0.2 1.1 1.3
v -0.1 1.5 1.3
v -0.1 1.8 1.3
v -0.1 2.1 1.3
v -0.1 2.4 1.3
v -0.1 2.7 1.3
v -0.1 3 1.3
v -1.1 3.3 1.1
v -1.1 3.5 1.1
v -0.6 3.3 1.1
v -0.6 3.5 1.1
v -0.1 0.2 0.2
v -0.1 0.5 0.2
v -0.1 0.8 0.2
v -0.1 1.1 0.2
v 0 0.2 0.2
v 0 0.5 0.2
v 0 0.8 0.2
v 0 1.1 0.2
v 0 0 0
v 0 1.5 0
v 0 1.8 0
v 0 2.1 0
v 0 2.4 0
v 0 2.7 0
v 0 3 0
v 0 3.4 0
v 0.3 0 0
v 0.3 1 0
v 1.1 0 0
v 1.1 1 0
v 1.4 0 0
v 1.4 1.5 0
v 1.4 1.8 0
v 1.4 2.1 0
v 1.4 2.4 0
v 1.4 2.7 0
v 1.4 3 0
v 1.4 3.4 0
v -0.1 1.5 -0.1
v -0.1 1.8 -0.1
v -0.1 2.1 -0.1
v -0.1 2.4 -0.1
v -0.1 2.7 -0.1
v -0.1 3 -0.1
v 0.3 0 -0.1
v 0.3 1 -0.1
v 1.1 0 -0.1
v 1.1 1 -0.1
v 1.3 1.5 -0.1
v 1.3 1.8 -0.1
v 1.3 2.1 -0.1
v 1.3 2.4 -0.1
v 1.3 2.7 -0.1
v 1.3 3 -0.1
v 0.7 3.3 -0.6
v 0.7 3.5 -0.6
v 1 3.3 -0.6
v 1 3.5 -0.6
v 0.6 3.3 -0.7
v 0.6 3.4 -0.7
v 0.7 3.3 -0.7
v 0.7 3.4 -0.7
v 0.6 3.3 -0.9
v 0.6 3.4 -0.9
v 0.7 3.3 -0.9
v 0.7 3.4 -0.9
v -1.2 3.3 -1.2
v -1.2 3.4 -1.2
v 1.2 3.3 -1.2
v 1.2 3.4 -1.2
v 1.3 0.4 -1.2
v 1.3 1 -1.2
v 1.3 1.5 -1.2
v 1.3 1.8 -1.2
v 1.3 2.1 -1.2
v 1.3 2.4 -1.2
v 1.3 2.7 -1.2
v 1.3 3 -1.2
v 1.4 0.4 -1.2
v 1.4 1 -1.2
v 1.4 1.5 -1.2
v 1.4 1.8 -1.2
v 1.4 2.1 -1.2
v 1.4 2.4 -1.2
v 1.4 2.7 -1.2
v 1.4 3 -1.2
v -1.2 3.3 1.2
v -1.2 3.4 1.2
v -0.2 3.3 1.2
v -0.2 3.4 1.2
v -0.1 0.2 1.2
v -0.1 0.5 1.2
v -0.1 0.8 1.2
v -0.1 1.1 1.2
v 0 0.2 1.2
v 0 0.5 1.2
v 0 0.8 1.2
v 0 1.1 1.2
v -1.1 3.3 0.8
v -1.1 3.5 0.8
v -1 3.3 0.8
v -1 3.4 0.8
v -0.9 3.3 0.8
v -0.9 3.4 0.8
v -0.8 3.3 0.8
v -0.8 3.4 0.8
v -0.7 3.3 0.8
v -0.7 3.4 0.8
v -0.6 3.3 0.8
v -0.6 3.5 0.8
v -1 3.3 0.7
v -1 3.4 0.7
v -0.9 3.3 0.7
v -0.9 3.4 0.7
v -0.8 3.3 0.7
v -0.8 3.4 0.7
v -0.7 3.3 0.7
v -0.7 3.4 0.7
v -0.2 3.3 -0.2
v -0.2 3.4 -0.2
v 1.2 3.3 -0.2
v 1.2 3.4 -0.2
v 1.3 0.4 -0.2
v 1.3 1 -0.2
v 1.4 0.4 -0.2
v 1.4 1 -0.2
v 0.6 3.3 -0.8
v 0.6 3.4 -0.8
v 0.7 3.3 -0.8
v 0.7 3.4 -0.8
v 0.6 3.3 -1
v 0.6 3.4 -1
v 0.7 3.3 -1
v 0.7 3.4 -1
v 0.7 3.3 -1.1
v 0.7 3.5 -1.1
v 1 3.3 -1.1
v 1 3.5 -1.1
v -1.4 0 -1.4
v -1.4 3.4 -1.4
v -1 0 -1.4
v -1 0.2 -1.4
v -0.5 0 -1.4
v -0.5 0.2 -1.4
v 0.2 0 -1.4
v 0.2 0.2 -1.4
v 0.7 0 -1.4
v 0.7 0.2 -1.4
v 1.4 0 -1.4
v 1.4 3.4 -1.4
v -1 0 -1.7
v -1 0.2 -1.7
v -0.5 0 -1.7
v -0.5 0.2 -1.7
v 0.2 0 -1.7
v 0.2 0.2 -1.7
v 0.7 0 -1.7
v 0.7 0.2 -1.7
v -1.4 0 1.4
v 0 0 1.4
v 0 0 0
v 0.3 0 0
v 1.1 0 0
v 1.4 0 0
v 0.3 0 -0.1
v 1.1 0 -0.1
v 0.3 0 -0.2
v 1.1 0 -0.2
v -1.4 0 -1.4
v -1 0 -1.4
v -0.5 0 -1.4
v 0.2 0 -1.4
v 0.7 0 -1.4
v 1.4 0 -1.4
v -1 0 -1.7
v -0.5 0 -1.7
v 0.2 0 -1.7
v 0.7 0 -1.7
v -1.2 0.5 1.4
v -0.2 0.5 1.4
v -1.2 0.5 1.3
v -0.2 0.5 1.3
v -0.1 0.5 1.2
v 0 0.5 1.2
v -0.1 0.5 0.2
v 0 0.5 0.2
v 0.3 1 0
v 1.1 1 0
v 0.3 1 -0.1
v 1.1 1 -0.1
v 1.3 1 -0.2
v 1.4 1 -0.2
v 1.3 1 -1.2
v 1.4 1 -1.2
v -1.2 1.1 1.4
v -0.2 1.1 1.4
v -1.2 1.1 1.3
v -0.2 1.1 1.3
v -0.1 1.1 1.2
v 0 1.1 1.2
v -0.1 1.1 0.2
v 0 1.1 0.2
v -1.2 1.8 1.4
v 0 1.8 1.4
v -1.2 1.8 1.3
v -0.1 1.8 1.3
v 0 1.8 0
v 1.4 1.8 0
v -0.1 1.8 -0.1
v 1.3 1.8 -0.1
v 1.3 1.8 -1.2
v 1.4 1.8 -1.2
v -1.2 2.4 1.4
v 0 2.4 1.4
v -1.2 2.4 1.3
v -0.1 2.4 1.3
v 0 2.4 0
v 1.4 2.4 0
v -0.1 2.4 -0.1
v 1.3 2.4 -0.1
v 1.3 2.4 -1.2
v 1.4 2.4 -1.2
v -1.2 3 1.4
v 0 3 1.4
v -1.2 3 1.3
v -0.1 3 1.3
v 0 3 0
v 1.4 3 0
v -0.1 3 -0.1
v 1.3 3 -0.1
v 1.3 3 -1.2
v 1.4 3 -1.2
v -1.2 0.2 1.4
v -0.2 0.2 1.4
v -1.2 0.2 1.3
v -0.2 0.2 1.3
v -0.1 0.2 1.2
v 0 0.2 1.2
v -0.1 0.2 0.2
v 0 0.2 0.2
v -1 0.2 -1.4
v -0.5 0.2 -1.4
v 0.2 0.2 -1.4
v 0.7 0.2 -1.4
v -1 0.2 -1.7
v -0.5 0.2 -1.7
v 0.2 0.2 -1.7
v 0.7 0.2 -1.7
v 1.3 0.4 -0.2
v 1.4 0.4 -0.2
v 1.3 0.4 -1.2
v 1.4 0.4 -1.2
v -1.2 0.8 1.4
v -0.2 0.8 1.4
v -1.2 0.8 1.3
v -0.2 0.8 1.3
v -0.1 0.8 1.2
v 0 0.8 1.2
v -0.1 0.8 0.2
v 0 0.8 0.2
v -1.2 1.5 1.4
v 0 1.5 1.4
v -1.2 1.5 1.3
v -0.1 1.5 1.3
v 0 1.5 0
v 1.4 1.5 0
v -0.1 1.5 -0.1
v 1.3 1.5 -0.1
v 1.3 1.5 -1.2
v 1.4 1.5 -1.2
v -1.2 2.1 1.4
v 0 2.1 1.4
v -1.2 2.1 1.3
v -0.1 2.1 1.3
v 0 2.1 0
v 1.4 2.1 0
v -0.1 2.1 -0.1
v 1.3 2.1 -0.1
v 1.3 2.1 -1.2
v 1.4 2.1 -1.2
v -1.2 2.7 1.4
v 0 2.7 1.4
v -1.2 2.7 1.3
v -0.1 2.7 1.3
v 0 2.7 0
v 1.4 2.7 0
v -0.1 2.7 -0.1
v 1.3 2.7 -0.1
v 1.3 2.7 -1.2
v 1.4 2.7 -1.2
v -1.2 3.3 1.2
v -0.2 3.3 1.2
v -1.1 3.3 1.1
v -0.6 3.3 1.1
v -1.1 3.3 0.8
v -1 3.3 0.8
v -0.9 3.3 0.8
v -0.8 3.3 0.8
v -0.7 3.3 0.8
v -0.6 3.3 0.8
v -1 3.3 0.7
v -0.9 3.3 0.7
v -0.8 3.3 0.7
v -0.7 3.3 0.7
v -0.2 3.3 -0.2
v 1.2 3.3 -0.2
v 0.7 3.3 -0.6
v 1 3.3 -0.6
v 0.6 3.3 -0.7
v 0.7 3.3 -0.7
v 0.6 3.3 -0.8
v 0.7 3.3 -0.8
v 0.6 3.3 -0.9
v 0.7 3.3 -0.9
v 0.6 3.3 -1
v 0.7 3.3 -1
v 0.7 3.3 -1.1
v 1 3.3 -1.1
v -1.2 3.3 -1.2
v 1.2 3.3 -1.2
v -1.4 3.4 1.4
v 0 3.4 1.4
v -1.2 3.4 1.2
v -0.2 3.4 1.2
v -1 3.4 0.8
v -0.9 3.4 0.8
v -0.8 3.4 0.8
v -0.7 3.4 0.8
v -1 3.4 0.7
v -0.9 3.4 0.7
v -0.8 3.4 0.7
v -0.7 3.4 0.7
v 0 3.4 0
v 1.4 3.4 0
v -0.2 3.4 -0.2
v 1.2 3.4 -0.2
v 0.6 3.4 -0.7
v 0.7 3.4 -0.7
v 0.6 3.4 -0.8
v 0.7 3.4 -0.8
v 0.6 3.4 -0.9
v 0.7 3.4 -0.9
v 0.6 3.4 -1
v 0.7 3.4 -1
v -1.2 3.4 -1.2
v 1.2 3.4 -1.2
v -1.4 3.4 -1.4
v 1.4 3.4 -1.4
v -1.1 3.5 1.1
v -0.6 3.5 1.1
v -1.1 3.5 0.8
v -0.6 3.5 0.8
v 0.7 3.5 -0.6
v 1 3.5 -0.6
v 0.7 3.5 -1.1
v 1 3.5 -1.1

# faces
f 3/3/1 2/3/1 1/3/1
f 4/3/1 2/3/1 3/3/1
f 7/1/1 6/1/1 5/1/1
f 8/1/1 6/1/1 7/1/1
f 11/3/1 10/3/1 9/3/1
f 12/3/1 10/3/1 11/3/1
f 15/1/1 14/1/1 13/1/1
f 16/1/1 14/1/1 15/1/1
f 19/1/1 18/1/1 17/1/1
f 20/1/1 18/1/1 19/1/1
f 23/3/1 22/3/1 21/3/1
f 24/3/1 22/3/1 23/3/1
f 27/3/1 26/3/1 25/3/1
f 28/3/1 26/3/1 27/3/1
f 31/3/1 30/3/1 29/3/1
f 32/3/1 30/3/1 31/3/1
f 35/3/1 34/3/1 33/3/1
f 36/3/1 34/3/1 35/3/1
f 41/1/1 38/1/1 37/1/1
f 42/1/1 38/1/1 41/1/1
f 43/1/1 40/1/1 39/1/1
f 44/1/1 40/1/1 43/1/1
f 51/1/1 46/1/1 45/1/1
f 52/1/1 48/1/1 47/1/1
f 53/1/1 48/1/1 52/1/1
f 54/1/1 50/1/1 49/1/1
f 55/1/1 53/1/1 52/1/1
f 55/1/1 54/1/1 53/1/1
f 55/1/1 51/1/1 45/1/1
f 55/1/1 52/1/1 51/1/1
f 56/1/1 50/1/1 54/1/1
f 56/1/1 54/1/1 55/1/1
f 59/3/1 58/3/1 57/3/1
f 60/3/1 58/3/1 59/3/1
f 63/3/1 62/3/1 61/3/1
f 64/3/1 62/3/1 63/3/1
f 65/3/2 66/3/2 67/3/2
f 67/3/2 66/3/2 68/3/2
f 69/3/2 70/3/2 71/3/2
f 71/3/2 70/3/2 72/3/2
f 73/3/2 74/3/2 75/3/2
f 75/3/2 74/3/2 76/3/2
f 77/3/2 78/3/2 79/3/2
f 79/3/2 78/3/2 80/3/2
f 81/3/2 82/3/2 83/3/2
f 83/3/2 82/3/2 84/3/2
f 85/3/2 86/3/2 87/3/2
f 87/3/2 86/3/2 88/3/2
f 89/1/2 90/1/2 91/1/2
f 91/1/2 90/1/2 92/1/2
f 93/1/2 94/1/2 95/1/2
f 95/1/2 94/1/2 96/1/2
f 97/1/2 98/1/2 99/1/2
f 99/1/2 98/1/2 100/1/2
f 101/3/2 102/3/2 103/3/2
f 103/3/2 102/3/2 104/3/2
f 105/2/2 106/2/2 107/2/2
f 107/2/2 106/2/2 108/2/2
f 109/2/2 110/2/2 111/2/2
f 111/2/2 110/2/2 112/2/2
f 113/2/2 114/2/2 115/2/2
f 115/2/2 114/2/2 116/2/2
f 117/2/2 118/2/2 119/2/2
f 119/2/2 118/2/2 120/2/2
f 121/2/2 122/2/2 123/2/2
f 123/2/2 122/2/2 124/2/2
f 125/3/2 126/3/2 127/3/2
f 127/3/2 126/3/2 128/3/2
f 125/3/2 127/3/2 129/3/2
f 128/3/2 126/3/2 130/3/2
f 125/3/2 129/3/2 131/3/2
f 129/3/2 130/3/2 131/3/2
f 130/3/2 126/3/2 132/3/2
f 131/3/2 130/3/2 132/3/2
f 125/3/2 131/3/2 133/3/2
f 132/3/2 126/3/2 134/3/2
f 125/3/2 133/3/2 135/3/2
f 133/3/2 134/3/2 135/3/2
f 134/3/2 126/3/2 136/3/2
f 135/3/2 134/3/2 136/3/2
f 137/3/2 138/3/2 139/3/2
f 139/3/2 138/3/2 140/3/2
f 141/3/2 142/3/2 143/3/2
f 143/3/2 142/3/2 144/3/2
f 145/3/2 146/3/2 147/3/2
f 147/3/2 146/3/2 148/3/2
f 149/3/2 150/3/2 151/3/2
f 151/3/2 150/3/2 152/3/2
f 153/3/2 154/3/2 155/3/2
f 155/3/2 154/3/2 156/3/2
f 157/1/2 158/1/2 159/1/2
f 159/1/2 158/1/2 160/1/2
f 161/2/2 162/2/2 163/2/2
f 163/2/2 162/2/2 164/2/2
f 165/2/2 166/2/2 167/2/2
f 167/2/2 166/2/2 168/2/2
f 169/2/2 170/2/2 171/2/2
f 171/2/2 170/2/2 172/2/2
f 173/2/2 174/2/2 175/2/2
f 175/2/2 174/2/2 176/2/2
f 177/3/2 178/3/2 179/3/2
f 179/3/2 178/3/2 180/3/2
f 177/3/2 179/3/2 181/3/2
f 180/3/2 178/3/2 182/3/2
f 177/3/2 181/3/2 183/3/2
f 181/3/2 182/3/2 183/3/2
f 182/3/2 178/3/2 184/3/2
f 183/3/2 182/3/2 184/3/2
f 184/3/2 178/3/2 186/3/2
f 185/3/2 186/3/2 187/3/2
f 186/3/2 178/3/2 188/3/2
f 187/3/2 186/3/2 188/3/2
f 188/3/2 178/3/2 190/3/2
f 189/3/2 190/3/2 191/3/2
f 190/3/2 178/3/2 192/3/2
f 191/3/2 190/3/2 192/3/2
f 192/3/2 178/3/2 194/3/2
f 193/3/2 194/3/2 195/3/2
f 194/3/2 178/3/2 196/3/2
f 195/3/2 194/3/2 196/3/2
f 199/3/3 198/3/3 197/3/3
f 200/3/3 198/3/3 199/3/3
f 201/3/3 198/3/3 200/3/3
f 202/3/3 198/3/3 201/3/3
f 203/3/3 198/3/3 202/3/3
f 204/3/3 198/3/3 203/3/3
f 205/3/3 198/3/3 204/3/3
f 206/3/3 198/3/3 205/3/3
f 207/3/3 198/3/3 206/3/3
f 208/3/3 198/3/3 207/3/3
f 209/3/3 199/3/3 197/3/3
f 210/3/3 201/3/3 200/3/3
f 211/3/3 201/3/3 210/3/3
f 212/3/3 203/3/3 202/3/3
f 213/3/3 209/3/3 197/3/3
f 213/3/3 212/3/3 211/3/3
f 213/3/3 211/3/3 210/3/3
f 213/3/3 210/3/3 209/3/3
f 214/3/3 203/3/3 212/3/3
f 214/3/3 212/3/3 213/3/3
f 215/3/3 205/3/3 204/3/3
f 216/3/3 205/3/3 215/3/3
f 217/3/3 207/3/3 206/3/3
f 218/3/3 207/3/3 217/3/3
f 219/3/3 198/3/3 208/3/3
f 220/3/3 198/3/3 219/3/3
f 231/2/3 222/2/3 221/2/3
f 232/2/3 222/2/3 231/2/3
f 233/2/3 224/2/3 223/2/3
f 234/2/3 224/2/3 233/2/3
f 235/2/3 226/2/3 225/2/3
f 236/2/3 226/2/3 235/2/3
f 237/2/3 228/2/3 227/2/3
f 238/2/3 228/2/3 237/2/3
f 239/2/3 230/2/3 229/2/3
f 240/2/3 230/2/3 239/2/3
f 243/1/3 242/1/3 241/1/3
f 244/1/3 242/1/3 243/1/3
f 249/3/3 246/3/3 245/3/3
f 250/3/3 246/3/3 249/3/3
f 251/3/3 248/3/3 247/3/3
f 252/3/3 248/3/3 251/3/3
f 261/3/3 254/3/3 253/3/3
f 262/3/3 254/3/3 261/3/3
f 264/3/3 254/3/3 262/3/3
f 265/3/3 264/3/3 263/3/3
f 266/3/3 254/3/3 264/3/3
f 266/3/3 264/3/3 265/3/3
f 267/3/3 256/3/3 255/3/3
f 268/3/3 256/3/3 267/3/3
f 269/3/3 258/3/3 257/3/3
f 270/3/3 258/3/3 269/3/3
f 271/3/3 260/3/3 259/3/3
f 272/3/3 260/3/3 271/3/3
f 281/4/3 280/4/3 279/4/3
f 282/4/3 280/4/3 281/4/3
f 283/2/3 274/2/3 273/2/3
f 284/2/3 274/2/3 283/2/3
f 285/2/3 276/2/3 275/2/3
f 286/2/3 276/2/3 285/2/3
f 287/2/3 278/2/3 277/2/3
f 288/2/3 278/2/3 287/2/3
f 291/1/3 290/1/3 289/1/3
f 292/1/3 290/1/3 291/1/3
f 295/1/3 294/1/3 293/1/3
f 296/1/3 294/1/3 295/1/3
f 299/1/3 298/1/3 297/1/3
f 300/1/3 298/1/3 299/1/3
f 303/3/3 302/3/3 301/3/3
f 304/3/3 302/3/3 303/3/3
f 313/3/3 306/3/3 305/3/3
f 314/3/3 306/3/3 313/3/3
f 315/3/3 308/3/3 307/3/3
f 316/3/3 308/3/3 315/3/3
f 317/3/3 310/3/3 309/3/3
f 318/3/3 310/3/3 317/3/3
f 319/3/3 312/3/3 311/3/3
f 320/3/3 312/3/3 319/3/3
f 321/3/4 322/3/4 323/3/4
f 323/3/4 322/3/4 324/3/4
f 325/3/4 326/3/4 329/3/4
f 329/3/4 326/3/4 330/3/4
f 327/3/4 328/3/4 331/3/4
f 331/3/4 328/3/4 332/3/4
f 333/1/4 334/1/4 335/1/4
f 335/1/4 334/1/4 336/1/4
f 336/1/4 334/1/4 338/1/4
f 337/1/4 338/1/4 339/1/4
f 338/1/4 334/1/4 340/1/4
f 339/1/4 338/1/4 340/1/4
f 340/1/4 334/1/4 342/1/4
f 341/1/4 342/1/4 343/1/4
f 342/1/4 334/1/4 344/1/4
f 343/1/4 342/1/4 344/1/4
f 345/1/4 346/1/4 347/1/4
f 347/1/4 346/1/4 348/1/4
f 349/1/4 350/1/4 351/1/4
f 351/1/4 350/1/4 352/1/4
f 353/3/4 354/3/4 355/3/4
f 355/3/4 354/3/4 356/3/4
f 357/3/4 358/3/4 359/3/4
f 359/3/4 358/3/4 360/3/4
f 361/1/4 362/1/4 363/1/4
f 363/1/4 362/1/4 364/1/4
f 365/1/4 366/1/4 367/1/4
f 367/1/4 366/1/4 368/1/4
f 369/1/4 370/1/4 371/1/4
f 371/1/4 370/1/4 372/1/4
f 373/3/4 374/3/4 375/3/4
f 375/3/4 374/3/4 376/3/4
f 376/3/4 374/3/4 378/3/4
f 377/3/4 378/3/4 379/3/4
f 378/3/4 374/3/4 380/3/4
f 379/3/4 378/3/4 380/3/4
f 380/3/4 374/3/4 382/3/4
f 381/3/4 382/3/4 383/3/4
f 382/3/4 374/3/4 384/3/4
f 383/3/4 382/3/4 384/3/4
f 385/3/4 386/3/4 387/3/4
f 387/3/4 386/3/4 388/3/4
f 389/3/4 390/3/4 391/3/4
f 391/3/4 390/3/4 392/3/4
f 395/3/5 394/3/5 393/3/5
f 399/3/5 396/3/5 395/3/5
f 400/3/5 398/3/5 397/3/5
f 401/3/5 399/3/5 395/3/5
f 401/4/5 400/4/5 399/4/5
f 402/3/5 398/3/5 400/3/5
f 402/4/5 400/4/5 401/4/5
f 403/3/5 395/3/5 393/3/5
f 403/3/5 401/3/5 395/3/5
f 403/3/5 402/3/5 401/3/5
f 404/3/5 402/3/5 403/3/5
f 405/3/5 402/3/5 404/3/5
f 406/3/5 402/3/5 405/3/5
f 407/3/5 402/3/5 406/3/5
f 408/3/5 398/3/5 402/3/5
f 408/3/5 402/3/5 407/3/5
f 409/3/5 405/3/5 404/3/5
f 410/3/5 405/3/5 409/3/5
f 411/3/5 407/3/5 406/3/5
f 412/3/5 407/3/5 411/3/5
f 415/3/5 414/3/5 413/3/5
f 416/3/5 414/3/5 415/3/5
f 419/3/5 418/3/5 417/3/5
f 420/3/5 418/3/5 419/3/5
f 423/3/5 422/3/5 421/3/5
f 424/3/5 422/3/5 423/3/5
f 427/3/5 426/3/5 425/3/5
f 428/3/5 426/3/5 427/3/5
f 431/3/5 430/3/5 429/3/5
f 432/3/5 430/3/5 431/3/5
f 435/3/5 434/3/5 433/3/5
f 436/3/5 434/3/5 435/3/5
f 439/3/5 438/3/5 437/3/5
f 440/3/5 438/3/5 439/3/5
f 441/3/5 438/3/5 440/3/5
f 443/3/5 441/3/5 440/3/5
f 443/3/5 442/3/5 441/3/5
f 444/3/5 442/3/5 443/3/5
f 445/3/5 442/3/5 444/3/5
f 446/3/5 442/3/5 445/3/5
f 449/3/5 448/3/5 447/3/5
f 450/3/5 448/3/5 449/3/5
f 451/3/5 448/3/5 450/3/5
f 453/3/5 451/3/5 450/3/5
f 453/3/5 452/3/5 451/3/5
f 454/3/5 452/3/5 453/3/5
f 455/3/5 452/3/5 454/3/5
f 456/3/5 452/3/5 455/3/5
f 459/3/5 458/3/5 457/3/5
f 460/3/5 458/3/5 459/3/5
f 461/3/5 458/3/5 460/3/5
f 463/3/5 461/3/5 460/3/5
f 463/3/5 462/3/5 461/3/5
f 464/3/5 462/3/5 463/3/5
f 465/3/5 462/3/5 464/3/5
f 466/3/5 462/3/5 465/3/5
f 467/3/6 468/3/6 469/3/6
f 469/3/6 468/3/6 470/3/6
f 471/3/6 472/3/6 473/3/6
f 473/3/6 472/3/6 474/3/6
f 475/3/6 476/3/6 479/3/6
f 479/3/6 476/3/6 480/3/6
f 477/3/6 478/3/6 481/3/6
f 481/3/6 478/3/6 482/3/6
f 483/3/6 484/3/6 485/3/6
f 485/3/6 484/3/6 486/3/6
f 487/3/6 488/3/6 489/3/6
f 489/3/6 488/3/6 490/3/6
f 491/3/6 492/3/6 493/3/6
f 493/3/6 492/3/6 494/3/6
f 495/3/6 496/3/6 497/3/6
f 497/3/6 496/3/6 498/3/6
f 498/3/6 496/3/6 499/3/6
f 498/3/6 499/3/6 501/3/6
f 499/3/6 500/3/6 501/3/6
f 501/3/6 500/3/6 502/3/6
f 502/3/6 500/3/6 503/3/6
f 503/3/6 500/3/6 504/3/6
f 505/3/6 506/3/6 507/3/6
f 507/3/6 506/3/6 508/3/6
f 508/3/6 506/3/6 509/3/6
f 508/3/6 509/3/6 511/3/6
f 509/3/6 510/3/6 511/3/6
f 511/3/6 510/3/6 512/3/6
f 512/3/6 510/3/6 513/3/6
f 513/3/6 510/3/6 514/3/6
f 515/3/6 516/3/6 517/3/6
f 517/3/6 516/3/6 518/3/6
f 518/3/6 516/3/6 519/3/6
f 518/3/6 519/3/6 521/3/6
f 519/3/6 520/3/6 521/3/6
f 521/3/6 520/3/6 522/3/6
f 522/3/6 520/3/6 523/3/6
f 523/3/6 520/3/6 524/3/6
f 525/3/6 526/3/6 527/3/6
f 527/3/6 526/3/6 528/3/6
f 525/3/6 527/3/6 529/3/6
f 528/3/6 526/3/6 534/3/6
f 529/3/6 530/3/6 535/3/6
f 531/3/6 532/3/6 536/3/6
f 536/3/6 532/3/6 537/3/6
f 533/3/6 534/3/6 538/3/6
f 536/3/6 537/3/6 539/3/6
f 537/3/6 538/3/6 539/3/6
f 538/3/6 534/3/6 539/3/6
f 534/3/6 526/3/6 539/3/6
f 535/3/6 536/3/6 539/3/6
f 539/3/6 540/3/6 541/3/6
f 541/3/6 540/3/6 542/3/6
f 539/3/6 541/3/6 543/3/6
f 543/3/6 541/3/6 544/3/6
f 539/3/6 543/3/6 545/3/6
f 539/3/6 545/3/6 547/3/6
f 545/3/6 546/3/6 547/3/6
f 547/3/6 546/3/6 548/3/6
f 539/3/6 547/3/6 549/3/6
f 549/3/6 550/3/6 551/3/6
f 542/3/6 540/3/6 552/3/6
f 529/3/6 535/3/6 553/3/6
f 551/3/6 552/3/6 553/3/6
f 525/3/6 529/3/6 553/3/6
f 535/3/6 539/3/6 553/3/6
f 539/3/6 549/3/6 553/3/6
f 549/3/6 551/3/6 553/3/6
f 552/3/6 540/3/6 554/3/6
f 553/3/6 552/3/6 554/3/6
f 555/3/6 556/3/6 557/3/6
f 557/3/6 556/3/6 558/3/6
f 559/1/6 560/1/6 563/1/6
f 563/1/6 560/1/6 564/1/6
f 561/1/6 562/1/6 565/1/6
f 565/1/6 562/1/6 566/1/6
f 558/3/6 556/3/6 567/3/6
f 558/3/6 567/3/6 569/3/6
f 567/3/6 568/3/6 569/3/6
f 569/3/6 568/3/6 570/3/6
f 571/1/6 572/1/6 573/1/6
f 573/1/6 572/1/6 574/1/6
f 575/1/6 576/1/6 577/1/6
f 577/1/6 576/1/6 578/1/6
f 555/3/6 557/3/6 579/3/6
f 570/3/6 568/3/6 580/3/6
f 555/3/6 579/3/6 581/3/6
f 579/3/6 580/3/6 581/3/6
f 580/3/6 568/3/6 582/3/6
f 581/3/6 580/3/6 582/3/6
f 583/1/6 584/1/6 585/1/6
f 585/1/6 584/1/6 586/1/6
f 587/1/6 588/1/6 589/1/6
f 589/1/6 588/1/6 590/1/6
