# MagicaVoxel @ Ephtracy

# group
o 

# material
mtllib Rampa.mtl
usemtl palette

# normals
vn -1 0 0
vn 1 0 0
vn 0 0 1
vn 0 0 -1
vn 0 -1 0
vn 0 1 0

# texcoords
vt 0.0917969 0.5
vt 0.986328 0.5

# verts
v -1.8 0 5.1
v -1.8 0 3.7
v -1.8 0 1.6
v -1.8 0 0.5
v -1.8 0 -1.4
v -1.8 0 -1.9
v -1.8 0.2 5.1
v -1.8 0.2 4.9
v -1.8 0.3 4.9
v -1.8 0.3 4.6
v -1.8 0.5 4.6
v -1.8 0.5 4.4
v -1.8 0.5 3.7
v -1.8 0.5 2.6
v -1.8 0.6 4.4
v -1.8 0.6 4.1
v -1.8 0.8 4.1
v -1.8 0.8 3.9
v -1.8 0.9 3.9
v -1.8 0.9 3.6
v -1.8 1.1 3.6
v -1.8 1.1 3.4
v -1.8 1.1 2.6
v -1.8 1.1 1.6
v -1.8 1.2 3.4
v -1.8 1.2 3.1
v -1.8 1.4 3.1
v -1.8 1.4 2.9
v -1.8 1.5 2.9
v -1.8 1.5 2.6
v -1.8 1.7 2.6
v -1.8 1.7 2.4
v -1.8 1.8 2.4
v -1.8 1.8 2.1
v -1.8 2 2.1
v -1.8 2 1.9
v -1.8 2.1 1.9
v -1.8 2.1 1.6
v -1.8 2.3 1.6
v -1.8 2.3 1.4
v -1.8 2.3 0.5
v -1.8 2.3 -0.5
v -1.8 2.4 1.4
v -1.8 2.4 1.1
v -1.8 2.6 1.1
v -1.8 2.6 0.9
v -1.8 2.7 0.9
v -1.8 2.7 0.6
v -1.8 2.9 0.6
v -1.8 2.9 0.4
v -1.8 2.9 -0.5
v -1.8 2.9 -1.4
v -1.8 3 0.4
v -1.8 3 0.0999999
v -1.8 3.2 0.0999999
v -1.8 3.2 -0.1
v -1.8 3.3 -0.1
v -1.8 3.3 -0.4
v -1.8 3.5 -0.4
v -1.8 3.5 -0.6
v -1.8 3.6 -0.6
v -1.8 3.6 -0.9
v -1.8 3.8 -0.9
v -1.8 3.8 -1.2
v -1.8 3.9 -1.2
v -1.8 3.9 -1.9
v 1.5 0 1.6
v 1.5 0 0.5
v 1.5 1.1 1.6
v 1.5 1.7 1.6
v 1.5 1.7 0.5
v -1.5 0 1.6
v -1.5 0 0.5
v -1.5 1.1 1.6
v -1.5 1.7 1.6
v -1.5 1.7 0.5
v 1.8 0 5.1
v 1.8 0 3.7
v 1.8 0 1.6
v 1.8 0 0.5
v 1.8 0 -1.4
v 1.8 0 -1.9
v 1.8 0.2 5.1
v 1.8 0.2 4.9
v 1.8 0.3 4.9
v 1.8 0.3 4.6
v 1.8 0.5 4.6
v 1.8 0.5 4.4
v 1.8 0.5 3.7
v 1.8 0.5 2.6
v 1.8 0.6 4.4
v 1.8 0.6 4.1
v 1.8 0.8 4.1
v 1.8 0.8 3.9
v 1.8 0.9 3.9
v 1.8 0.9 3.6
v 1.8 1.1 3.6
v 1.8 1.1 3.4
v 1.8 1.1 2.6
v 1.8 1.1 1.6
v 1.8 1.2 3.4
v 1.8 1.2 3.1
v 1.8 1.4 3.1
v 1.8 1.4 2.9
v 1.8 1.5 2.9
v 1.8 1.5 2.6
v 1.8 1.7 2.6
v 1.8 1.7 2.4
v 1.8 1.8 2.4
v 1.8 1.8 2.1
v 1.8 2 2.1
v 1.8 2 1.9
v 1.8 2.1 1.9
v 1.8 2.1 1.6
v 1.8 2.3 1.6
v 1.8 2.3 1.4
v 1.8 2.3 0.5
v 1.8 2.3 -0.5
v 1.8 2.4 1.4
v 1.8 2.4 1.1
v 1.8 2.6 1.1
v 1.8 2.6 0.9
v 1.8 2.7 0.9
v 1.8 2.7 0.6
v 1.8 2.9 0.6
v 1.8 2.9 0.4
v 1.8 2.9 -0.5
v 1.8 2.9 -1.4
v 1.8 3 0.4
v 1.8 3 0.0999999
v 1.8 3.2 0.0999999
v 1.8 3.2 -0.1
v 1.8 3.3 -0.1
v 1.8 3.3 -0.4
v 1.8 3.5 -0.4
v 1.8 3.5 -0.6
v 1.8 3.6 -0.6
v 1.8 3.6 -0.9
v 1.8 3.8 -0.9
v 1.8 3.8 -1.2
v 1.8 3.9 -1.2
v 1.8 3.9 -1.9
v -1.8 0 5.1
v -1.8 0.2 5.1
v -1.5 0 5.1
v -1.5 0.2 5.1
v 1.5 0 5.1
v 1.5 0.2 5.1
v 1.8 0 5.1
v 1.8 0.2 5.1
v -1.8 0.2 4.9
v -1.8 0.3 4.9
v -1.5 0.2 4.9
v -1.5 0.3 4.9
v 1.5 0.2 4.9
v 1.5 0.3 4.9
v 1.8 0.2 4.9
v 1.8 0.3 4.9
v -1.8 0.3 4.6
v -1.8 0.5 4.6
v -1.5 0.3 4.6
v -1.5 0.5 4.6
v 1.5 0.3 4.6
v 1.5 0.5 4.6
v 1.8 0.3 4.6
v 1.8 0.5 4.6
v -1.8 0.5 4.4
v -1.8 0.6 4.4
v -1.5 0.5 4.4
v -1.5 0.6 4.4
v 1.5 0.5 4.4
v 1.5 0.6 4.4
v 1.8 0.5 4.4
v 1.8 0.6 4.4
v -1.8 0.6 4.1
v -1.8 0.8 4.1
v -1.5 0.6 4.1
v -1.5 0.8 4.1
v 1.5 0.6 4.1
v 1.5 0.8 4.1
v 1.8 0.6 4.1
v 1.8 0.8 4.1
v -1.8 0.8 3.9
v -1.8 0.9 3.9
v -1.5 0.8 3.9
v -1.5 0.9 3.9
v 1.5 0.8 3.9
v 1.5 0.9 3.9
v 1.8 0.8 3.9
v 1.8 0.9 3.9
v -1.8 0.9 3.6
v -1.8 1.1 3.6
v -1.5 0.9 3.6
v -1.5 1.1 3.6
v 1.5 0.9 3.6
v 1.5 1.1 3.6
v 1.8 0.9 3.6
v 1.8 1.1 3.6
v -1.8 1.1 3.4
v -1.8 1.2 3.4
v -1.5 1.1 3.4
v -1.5 1.2 3.4
v 1.5 1.1 3.4
v 1.5 1.2 3.4
v 1.8 1.1 3.4
v 1.8 1.2 3.4
v -1.8 1.2 3.1
v -1.8 1.4 3.1
v -1.5 1.2 3.1
v -1.5 1.4 3.1
v 1.5 1.2 3.1
v 1.5 1.4 3.1
v 1.8 1.2 3.1
v 1.8 1.4 3.1
v -1.8 1.4 2.9
v -1.8 1.5 2.9
v -1.5 1.4 2.9
v -1.5 1.5 2.9
v 1.5 1.4 2.9
v 1.5 1.5 2.9
v 1.8 1.4 2.9
v 1.8 1.5 2.9
v -1.8 1.5 2.6
v -1.8 1.7 2.6
v -1.5 1.5 2.6
v -1.5 1.7 2.6
v 1.5 1.5 2.6
v 1.5 1.7 2.6
v 1.8 1.5 2.6
v 1.8 1.7 2.6
v -1.8 1.7 2.4
v -1.8 1.8 2.4
v -1.5 1.7 2.4
v -1.5 1.8 2.4
v 1.5 1.7 2.4
v 1.5 1.8 2.4
v 1.8 1.7 2.4
v 1.8 1.8 2.4
v -1.8 1.8 2.1
v -1.8 2 2.1
v -1.5 1.8 2.1
v -1.5 2 2.1
v 1.5 1.8 2.1
v 1.5 2 2.1
v 1.8 1.8 2.1
v 1.8 2 2.1
v -1.8 2 1.9
v -1.8 2.1 1.9
v -1.5 2 1.9
v -1.5 2.1 1.9
v 1.5 2 1.9
v 1.5 2.1 1.9
v 1.8 2 1.9
v 1.8 2.1 1.9
v -1.8 0 1.6
v -1.8 1.1 1.6
v -1.8 2.1 1.6
v -1.8 2.3 1.6
v -1.5 0 1.6
v -1.5 1.1 1.6
v -1.5 2.1 1.6
v -1.5 2.3 1.6
v 1.5 0 1.6
v 1.5 1.1 1.6
v 1.5 2.1 1.6
v 1.5 2.3 1.6
v 1.8 0 1.6
v 1.8 1.1 1.6
v 1.8 2.1 1.6
v 1.8 2.3 1.6
v -1.8 2.3 1.4
v -1.8 2.4 1.4
v -1.5 2.3 1.4
v -1.5 2.4 1.4
v 1.5 2.3 1.4
v 1.5 2.4 1.4
v 1.8 2.3 1.4
v 1.8 2.4 1.4
v -1.8 2.4 1.1
v -1.8 2.6 1.1
v -1.5 2.4 1.1
v -1.5 2.6 1.1
v 1.5 2.4 1.1
v 1.5 2.6 1.1
v 1.8 2.4 1.1
v 1.8 2.6 1.1
v -1.8 2.6 0.9
v -1.8 2.7 0.9
v -1.5 2.6 0.9
v -1.5 2.7 0.9
v 1.5 2.6 0.9
v 1.5 2.7 0.9
v 1.8 2.6 0.9
v 1.8 2.7 0.9
v -1.8 2.7 0.6
v -1.8 2.9 0.6
v -1.5 2.7 0.6
v -1.5 2.9 0.6
v 1.5 2.7 0.6
v 1.5 2.9 0.6
v 1.8 2.7 0.6
v 1.8 2.9 0.6
v -1.8 2.9 0.4
v -1.8 3 0.4
v -1.5 2.9 0.4
v -1.5 3 0.4
v 1.5 2.9 0.4
v 1.5 3 0.4
v 1.8 2.9 0.4
v 1.8 3 0.4
v -1.8 3 0.0999999
v -1.8 3.2 0.0999999
v -1.5 3 0.0999999
v -1.5 3.2 0.0999999
v 1.5 3 0.0999999
v 1.5 3.2 0.0999999
v 1.8 3 0.0999999
v 1.8 3.2 0.0999999
v -1.8 3.2 -0.1
v -1.8 3.3 -0.1
v -1.5 3.2 -0.1
v -1.5 3.3 -0.1
v 1.5 3.2 -0.1
v 1.5 3.3 -0.1
v 1.8 3.2 -0.1
v 1.8 3.3 -0.1
v -1.8 3.3 -0.4
v -1.8 3.5 -0.4
v -1.5 3.3 -0.4
v -1.5 3.5 -0.4
v 1.5 3.3 -0.4
v 1.5 3.5 -0.4
v 1.8 3.3 -0.4
v 1.8 3.5 -0.4
v -1.8 3.5 -0.6
v -1.8 3.6 -0.6
v -1.5 3.5 -0.6
v -1.5 3.6 -0.6
v 1.5 3.5 -0.6
v 1.5 3.6 -0.6
v 1.8 3.5 -0.6
v 1.8 3.6 -0.6
v -1.8 3.6 -0.9
v -1.8 3.8 -0.9
v -1.5 3.6 -0.9
v -1.5 3.8 -0.9
v 1.5 3.6 -0.9
v 1.5 3.8 -0.9
v 1.8 3.6 -0.9
v 1.8 3.8 -0.9
v -1.8 3.8 -1.2
v -1.8 3.9 -1.2
v -1.5 3.8 -1.2
v -1.5 3.9 -1.2
v 1.5 3.8 -1.2
v 1.5 3.9 -1.2
v 1.8 3.8 -1.2
v 1.8 3.9 -1.2
v -1.8 0 -1.4
v -1.8 2.9 -1.4
v -1.5 2.9 -1.4
v 1.5 2.9 -1.4
v 1.8 0 -1.4
v 1.8 2.9 -1.4
v -1.8 0 3.7
v -1.8 0.5 3.7
v -1.5 0 3.7
v -1.5 0.5 3.7
v 1.5 0 3.7
v 1.5 0.5 3.7
v 1.8 0 3.7
v 1.8 0.5 3.7
v -1.8 0.5 2.6
v -1.8 1.1 2.6
v -1.5 0.5 2.6
v -1.5 1.1 2.6
v 1.5 0.5 2.6
v 1.5 1.1 2.6
v 1.8 0.5 2.6
v 1.8 1.1 2.6
v -1.5 1.1 1.6
v -1.5 1.7 1.6
v 1.5 1.1 1.6
v 1.5 1.7 1.6
v -1.8 0 0.5
v -1.8 2.3 0.5
v -1.5 0 0.5
v -1.5 1.7 0.5
v -1.5 2.3 0.5
v 1.5 0 0.5
v 1.5 1.7 0.5
v 1.5 2.3 0.5
v 1.8 0 0.5
v 1.8 2.3 0.5
v -1.8 2.3 -0.5
v -1.8 2.9 -0.5
v -1.5 2.3 -0.5
v -1.5 2.9 -0.5
v 1.5 2.3 -0.5
v 1.5 2.9 -0.5
v 1.8 2.3 -0.5
v 1.8 2.9 -0.5
v -1.8 0 -1.9
v -1.8 3.9 -1.9
v 1.8 0 -1.9
v 1.8 3.9 -1.9
v -1.8 0 5.1
v -1.5 0 5.1
v 1.5 0 5.1
v 1.8 0 5.1
v -1.8 0 3.7
v -1.5 0 3.7
v 1.5 0 3.7
v 1.8 0 3.7
v -1.8 0 1.6
v -1.5 0 1.6
v 1.5 0 1.6
v 1.8 0 1.6
v -1.8 0 0.5
v -1.5 0 0.5
v 1.5 0 0.5
v 1.8 0 0.5
v -1.8 0 -1.4
v 1.8 0 -1.4
v -1.8 0 -1.9
v 1.8 0 -1.9
v -1.8 0.5 3.7
v -1.5 0.5 3.7
v 1.5 0.5 3.7
v 1.8 0.5 3.7
v -1.8 0.5 2.6
v -1.5 0.5 2.6
v 1.5 0.5 2.6
v 1.8 0.5 2.6
v -1.8 1.1 2.6
v -1.5 1.1 2.6
v 1.5 1.1 2.6
v 1.8 1.1 2.6
v -1.8 1.1 1.6
v -1.5 1.1 1.6
v 1.5 1.1 1.6
v 1.8 1.1 1.6
v -1.5 1.7 1.6
v 1.5 1.7 1.6
v -1.5 1.7 0.5
v 1.5 1.7 0.5
v -1.8 2.3 0.5
v -1.5 2.3 0.5
v 1.5 2.3 0.5
v 1.8 2.3 0.5
v -1.8 2.3 -0.5
v -1.5 2.3 -0.5
v 1.5 2.3 -0.5
v 1.8 2.3 -0.5
v -1.8 2.9 -0.5
v -1.5 2.9 -0.5
v 1.5 2.9 -0.5
v 1.8 2.9 -0.5
v -1.8 2.9 -1.4
v -1.5 2.9 -1.4
v 1.5 2.9 -1.4
v 1.8 2.9 -1.4
v -1.8 0.2 5.1
v -1.5 0.2 5.1
v 1.5 0.2 5.1
v 1.8 0.2 5.1
v -1.8 0.2 4.9
v -1.5 0.2 4.9
v 1.5 0.2 4.9
v 1.8 0.2 4.9
v -1.8 0.3 4.9
v -1.5 0.3 4.9
v 1.5 0.3 4.9
v 1.8 0.3 4.9
v -1.8 0.3 4.6
v -1.5 0.3 4.6
v 1.5 0.3 4.6
v 1.8 0.3 4.6
v -1.8 0.5 4.6
v -1.5 0.5 4.6
v 1.5 0.5 4.6
v 1.8 0.5 4.6
v -1.8 0.5 4.4
v -1.5 0.5 4.4
v 1.5 0.5 4.4
v 1.8 0.5 4.4
v -1.8 0.6 4.4
v -1.5 0.6 4.4
v 1.5 0.6 4.4
v 1.8 0.6 4.4
v -1.8 0.6 4.1
v -1.5 0.6 4.1
v 1.5 0.6 4.1
v 1.8 0.6 4.1
v -1.8 0.8 4.1
v -1.5 0.8 4.1
v 1.5 0.8 4.1
v 1.8 0.8 4.1
v -1.8 0.8 3.9
v -1.5 0.8 3.9
v 1.5 0.8 3.9
v 1.8 0.8 3.9
v -1.8 0.9 3.9
v -1.5 0.9 3.9
v 1.5 0.9 3.9
v 1.8 0.9 3.9
v -1.8 0.9 3.6
v -1.5 0.9 3.6
v 1.5 0.9 3.6
v 1.8 0.9 3.6
v -1.8 1.1 3.6
v -1.5 1.1 3.6
v 1.5 1.1 3.6
v 1.8 1.1 3.6
v -1.8 1.1 3.4
v -1.5 1.1 3.4
v 1.5 1.1 3.4
v 1.8 1.1 3.4
v -1.8 1.2 3.4
v -1.5 1.2 3.4
v 1.5 1.2 3.4
v 1.8 1.2 3.4
v -1.8 1.2 3.1
v -1.5 1.2 3.1
v 1.5 1.2 3.1
v 1.8 1.2 3.1
v -1.8 1.4 3.1
v -1.5 1.4 3.1
v 1.5 1.4 3.1
v 1.8 1.4 3.1
v -1.8 1.4 2.9
v -1.5 1.4 2.9
v 1.5 1.4 2.9
v 1.8 1.4 2.9
v -1.8 1.5 2.9
v -1.5 1.5 2.9
v 1.5 1.5 2.9
v 1.8 1.5 2.9
v -1.8 1.5 2.6
v -1.5 1.5 2.6
v 1.5 1.5 2.6
v 1.8 1.5 2.6
v -1.8 1.7 2.6
v -1.5 1.7 2.6
v 1.5 1.7 2.6
v 1.8 1.7 2.6
v -1.8 1.7 2.4
v -1.5 1.7 2.4
v 1.5 1.7 2.4
v 1.8 1.7 2.4
v -1.8 1.8 2.4
v -1.5 1.8 2.4
v 1.5 1.8 2.4
v 1.8 1.8 2.4
v -1.8 1.8 2.1
v -1.5 1.8 2.1
v 1.5 1.8 2.1
v 1.8 1.8 2.1
v -1.8 2 2.1
v -1.5 2 2.1
v 1.5 2 2.1
v 1.8 2 2.1
v -1.8 2 1.9
v -1.5 2 1.9
v 1.5 2 1.9
v 1.8 2 1.9
v -1.8 2.1 1.9
v -1.5 2.1 1.9
v 1.5 2.1 1.9
v 1.8 2.1 1.9
v -1.8 2.1 1.6
v -1.5 2.1 1.6
v 1.5 2.1 1.6
v 1.8 2.1 1.6
v -1.8 2.3 1.6
v -1.5 2.3 1.6
v 1.5 2.3 1.6
v 1.8 2.3 1.6
v -1.8 2.3 1.4
v -1.5 2.3 1.4
v 1.5 2.3 1.4
v 1.8 2.3 1.4
v -1.8 2.4 1.4
v -1.5 2.4 1.4
v 1.5 2.4 1.4
v 1.8 2.4 1.4
v -1.8 2.4 1.1
v -1.5 2.4 1.1
v 1.5 2.4 1.1
v 1.8 2.4 1.1
v -1.8 2.6 1.1
v -1.5 2.6 1.1
v 1.5 2.6 1.1
v 1.8 2.6 1.1
v -1.8 2.6 0.9
v -1.5 2.6 0.9
v 1.5 2.6 0.9
v 1.8 2.6 0.9
v -1.8 2.7 0.9
v -1.5 2.7 0.9
v 1.5 2.7 0.9
v 1.8 2.7 0.9
v -1.8 2.7 0.6
v -1.5 2.7 0.6
v 1.5 2.7 0.6
v 1.8 2.7 0.6
v -1.8 2.9 0.6
v -1.5 2.9 0.6
v 1.5 2.9 0.6
v 1.8 2.9 0.6
v -1.8 2.9 0.4
v -1.5 2.9 0.4
v 1.5 2.9 0.4
v 1.8 2.9 0.4
v -1.8 3 0.4
v -1.5 3 0.4
v 1.5 3 0.4
v 1.8 3 0.4
v -1.8 3 0.0999999
v -1.5 3 0.0999999
v 1.5 3 0.0999999
v 1.8 3 0.0999999
v -1.8 3.2 0.0999999
v -1.5 3.2 0.0999999
v 1.5 3.2 0.0999999
v 1.8 3.2 0.0999999
v -1.8 3.2 -0.1
v -1.5 3.2 -0.1
v 1.5 3.2 -0.1
v 1.8 3.2 -0.1
v -1.8 3.3 -0.1
v -1.5 3.3 -0.1
v 1.5 3.3 -0.1
v 1.8 3.3 -0.1
v -1.8 3.3 -0.4
v -1.5 3.3 -0.4
v 1.5 3.3 -0.4
v 1.8 3.3 -0.4
v -1.8 3.5 -0.4
v -1.5 3.5 -0.4
v 1.5 3.5 -0.4
v 1.8 3.5 -0.4
v -1.8 3.5 -0.6
v -1.5 3.5 -0.6
v 1.5 3.5 -0.6
v 1.8 3.5 -0.6
v -1.8 3.6 -0.6
v -1.5 3.6 -0.6
v 1.5 3.6 -0.6
v 1.8 3.6 -0.6
v -1.8 3.6 -0.9
v -1.5 3.6 -0.9
v 1.5 3.6 -0.9
v 1.8 3.6 -0.9
v -1.8 3.8 -0.9
v -1.5 3.8 -0.9
v 1.5 3.8 -0.9
v 1.8 3.8 -0.9
v -1.8 3.8 -1.2
v -1.5 3.8 -1.2
v 1.5 3.8 -1.2
v 1.8 3.8 -1.2
v -1.8 3.9 -1.2
v -1.5 3.9 -1.2
v 1.5 3.9 -1.2
v 1.8 3.9 -1.2
v -1.5 3.9 -1.6
v 1.5 3.9 -1.6
v -1.8 3.9 -1.9
v 1.8 3.9 -1.9

# faces
f 7/1/1 2/1/1 1/1/1
f 8/1/1 2/1/1 7/1/1
f 9/1/1 2/1/1 8/1/1
f 10/1/1 2/1/1 9/1/1
f 11/1/1 2/1/1 10/1/1
f 12/1/1 2/1/1 11/1/1
f 13/1/1 2/1/1 12/1/1
f 15/1/1 14/1/1 13/1/1
f 15/1/1 13/1/1 12/1/1
f 16/1/1 14/1/1 15/1/1
f 17/1/1 14/1/1 16/1/1
f 18/1/1 14/1/1 17/1/1
f 19/1/1 14/1/1 18/1/1
f 20/1/1 14/1/1 19/1/1
f 21/1/1 14/1/1 20/1/1
f 22/1/1 14/1/1 21/1/1
f 23/1/1 14/1/1 22/1/1
f 24/1/1 4/1/1 3/1/1
f 25/1/1 23/1/1 22/1/1
f 25/1/1 24/1/1 23/1/1
f 26/1/1 24/1/1 25/1/1
f 27/1/1 24/1/1 26/1/1
f 28/1/1 24/1/1 27/1/1
f 29/1/1 24/1/1 28/1/1
f 30/1/1 24/1/1 29/1/1
f 31/1/1 24/1/1 30/1/1
f 32/1/1 24/1/1 31/1/1
f 33/1/1 24/1/1 32/1/1
f 34/1/1 24/1/1 33/1/1
f 35/1/1 24/1/1 34/1/1
f 36/1/1 24/1/1 35/1/1
f 37/1/1 24/1/1 36/1/1
f 38/1/1 4/1/1 24/1/1
f 38/1/1 24/1/1 37/1/1
f 39/1/1 4/1/1 38/1/1
f 40/1/1 4/1/1 39/1/1
f 41/1/1 4/1/1 40/1/1
f 43/1/1 42/1/1 41/1/1
f 43/1/1 41/1/1 40/1/1
f 44/1/1 42/1/1 43/1/1
f 45/1/1 42/1/1 44/1/1
f 46/1/1 42/1/1 45/1/1
f 47/1/1 42/1/1 46/1/1
f 48/1/1 42/1/1 47/1/1
f 49/1/1 42/1/1 48/1/1
f 50/1/1 42/1/1 49/1/1
f 51/1/1 42/1/1 50/1/1
f 52/1/1 6/1/1 5/1/1
f 53/1/1 51/1/1 50/1/1
f 53/1/1 52/1/1 51/1/1
f 54/1/1 52/1/1 53/1/1
f 55/1/1 52/1/1 54/1/1
f 56/1/1 52/1/1 55/1/1
f 57/1/1 52/1/1 56/1/1
f 58/1/1 52/1/1 57/1/1
f 59/1/1 52/1/1 58/1/1
f 60/1/1 52/1/1 59/1/1
f 61/1/1 52/1/1 60/1/1
f 62/1/1 52/1/1 61/1/1
f 63/1/1 52/1/1 62/1/1
f 64/1/1 52/1/1 63/1/1
f 65/1/1 52/1/1 64/1/1
f 66/1/1 6/1/1 52/1/1
f 66/1/1 52/1/1 65/1/1
f 69/1/1 68/1/1 67/1/1
f 70/1/1 68/1/1 69/1/1
f 71/1/1 68/1/1 70/1/1
f 72/1/2 73/1/2 74/1/2
f 74/1/2 73/1/2 75/1/2
f 75/1/2 73/1/2 76/1/2
f 77/1/2 78/1/2 83/1/2
f 83/1/2 78/1/2 84/1/2
f 84/1/2 78/1/2 85/1/2
f 85/1/2 78/1/2 86/1/2
f 86/1/2 78/1/2 87/1/2
f 87/1/2 78/1/2 88/1/2
f 88/1/2 78/1/2 89/1/2
f 89/1/2 90/1/2 91/1/2
f 88/1/2 89/1/2 91/1/2
f 91/1/2 90/1/2 92/1/2
f 92/1/2 90/1/2 93/1/2
f 93/1/2 90/1/2 94/1/2
f 94/1/2 90/1/2 95/1/2
f 95/1/2 90/1/2 96/1/2
f 96/1/2 90/1/2 97/1/2
f 97/1/2 90/1/2 98/1/2
f 98/1/2 90/1/2 99/1/2
f 79/1/2 80/1/2 100/1/2
f 98/1/2 99/1/2 101/1/2
f 99/1/2 100/1/2 101/1/2
f 101/1/2 100/1/2 102/1/2
f 102/1/2 100/1/2 103/1/2
f 103/1/2 100/1/2 104/1/2
f 104/1/2 100/1/2 105/1/2
f 105/1/2 100/1/2 106/1/2
f 106/1/2 100/1/2 107/1/2
f 107/1/2 100/1/2 108/1/2
f 108/1/2 100/1/2 109/1/2
f 109/1/2 100/1/2 110/1/2
f 110/1/2 100/1/2 111/1/2
f 111/1/2 100/1/2 112/1/2
f 112/1/2 100/1/2 113/1/2
f 100/1/2 80/1/2 114/1/2
f 113/1/2 100/1/2 114/1/2
f 114/1/2 80/1/2 115/1/2
f 115/1/2 80/1/2 116/1/2
f 116/1/2 80/1/2 117/1/2
f 117/1/2 118/1/2 119/1/2
f 116/1/2 117/1/2 119/1/2
f 119/1/2 118/1/2 120/1/2
f 120/1/2 118/1/2 121/1/2
f 121/1/2 118/1/2 122/1/2
f 122/1/2 118/1/2 123/1/2
f 123/1/2 118/1/2 124/1/2
f 124/1/2 118/1/2 125/1/2
f 125/1/2 118/1/2 126/1/2
f 126/1/2 118/1/2 127/1/2
f 81/1/2 82/1/2 128/1/2
f 126/1/2 127/1/2 129/1/2
f 127/1/2 128/1/2 129/1/2
f 129/1/2 128/1/2 130/1/2
f 130/1/2 128/1/2 131/1/2
f 131/1/2 128/1/2 132/1/2
f 132/1/2 128/1/2 133/1/2
f 133/1/2 128/1/2 134/1/2
f 134/1/2 128/1/2 135/1/2
f 135/1/2 128/1/2 136/1/2
f 136/1/2 128/1/2 137/1/2
f 137/1/2 128/1/2 138/1/2
f 138/1/2 128/1/2 139/1/2
f 139/1/2 128/1/2 140/1/2
f 140/1/2 128/1/2 141/1/2
f 128/1/2 82/1/2 142/1/2
f 141/1/2 128/1/2 142/1/2
f 145/1/3 144/1/3 143/1/3
f 146/1/3 144/1/3 145/1/3
f 147/2/3 146/2/3 145/2/3
f 148/2/3 146/2/3 147/2/3
f 149/1/3 148/1/3 147/1/3
f 150/1/3 148/1/3 149/1/3
f 153/1/3 152/1/3 151/1/3
f 154/1/3 152/1/3 153/1/3
f 155/2/3 154/2/3 153/2/3
f 156/2/3 154/2/3 155/2/3
f 157/1/3 156/1/3 155/1/3
f 158/1/3 156/1/3 157/1/3
f 161/1/3 160/1/3 159/1/3
f 162/1/3 160/1/3 161/1/3
f 163/2/3 162/2/3 161/2/3
f 164/2/3 162/2/3 163/2/3
f 165/1/3 164/1/3 163/1/3
f 166/1/3 164/1/3 165/1/3
f 169/1/3 168/1/3 167/1/3
f 170/1/3 168/1/3 169/1/3
f 171/2/3 170/2/3 169/2/3
f 172/2/3 170/2/3 171/2/3
f 173/1/3 172/1/3 171/1/3
f 174/1/3 172/1/3 173/1/3
f 177/1/3 176/1/3 175/1/3
f 178/1/3 176/1/3 177/1/3
f 179/2/3 178/2/3 177/2/3
f 180/2/3 178/2/3 179/2/3
f 181/1/3 180/1/3 179/1/3
f 182/1/3 180/1/3 181/1/3
f 185/1/3 184/1/3 183/1/3
f 186/1/3 184/1/3 185/1/3
f 187/2/3 186/2/3 185/2/3
f 188/2/3 186/2/3 187/2/3
f 189/1/3 188/1/3 187/1/3
f 190/1/3 188/1/3 189/1/3
f 193/1/3 192/1/3 191/1/3
f 194/1/3 192/1/3 193/1/3
f 195/2/3 194/2/3 193/2/3
f 196/2/3 194/2/3 195/2/3
f 197/1/3 196/1/3 195/1/3
f 198/1/3 196/1/3 197/1/3
f 201/1/3 200/1/3 199/1/3
f 202/1/3 200/1/3 201/1/3
f 203/2/3 202/2/3 201/2/3
f 204/2/3 202/2/3 203/2/3
f 205/1/3 204/1/3 203/1/3
f 206/1/3 204/1/3 205/1/3
f 209/1/3 208/1/3 207/1/3
f 210/1/3 208/1/3 209/1/3
f 211/2/3 210/2/3 209/2/3
f 212/2/3 210/2/3 211/2/3
f 213/1/3 212/1/3 211/1/3
f 214/1/3 212/1/3 213/1/3
f 217/1/3 216/1/3 215/1/3
f 218/1/3 216/1/3 217/1/3
f 219/2/3 218/2/3 217/2/3
f 220/2/3 218/2/3 219/2/3
f 221/1/3 220/1/3 219/1/3
f 222/1/3 220/1/3 221/1/3
f 225/1/3 224/1/3 223/1/3
f 226/1/3 224/1/3 225/1/3
f 227/2/3 226/2/3 225/2/3
f 228/2/3 226/2/3 227/2/3
f 229/1/3 228/1/3 227/1/3
f 230/1/3 228/1/3 229/1/3
f 233/1/3 232/1/3 231/1/3
f 234/1/3 232/1/3 233/1/3
f 235/2/3 234/2/3 233/2/3
f 236/2/3 234/2/3 235/2/3
f 237/1/3 236/1/3 235/1/3
f 238/1/3 236/1/3 237/1/3
f 241/1/3 240/1/3 239/1/3
f 242/1/3 240/1/3 241/1/3
f 243/2/3 242/2/3 241/2/3
f 244/2/3 242/2/3 243/2/3
f 245/1/3 244/1/3 243/1/3
f 246/1/3 244/1/3 245/1/3
f 249/1/3 248/1/3 247/1/3
f 250/1/3 248/1/3 249/1/3
f 251/2/3 250/2/3 249/2/3
f 252/2/3 250/2/3 251/2/3
f 253/1/3 252/1/3 251/1/3
f 254/1/3 252/1/3 253/1/3
f 259/1/3 256/1/3 255/1/3
f 260/1/3 256/1/3 259/1/3
f 261/1/3 258/1/3 257/1/3
f 262/1/3 258/1/3 261/1/3
f 265/2/3 262/2/3 261/2/3
f 266/2/3 262/2/3 265/2/3
f 267/1/3 264/1/3 263/1/3
f 268/1/3 264/1/3 267/1/3
f 269/1/3 266/1/3 265/1/3
f 270/1/3 266/1/3 269/1/3
f 273/1/3 272/1/3 271/1/3
f 274/1/3 272/1/3 273/1/3
f 275/2/3 274/2/3 273/2/3
f 276/2/3 274/2/3 275/2/3
f 277/1/3 276/1/3 275/1/3
f 278/1/3 276/1/3 277/1/3
f 281/1/3 280/1/3 279/1/3
f 282/1/3 280/1/3 281/1/3
f 283/2/3 282/2/3 281/2/3
f 284/2/3 282/2/3 283/2/3
f 285/1/3 284/1/3 283/1/3
f 286/1/3 284/1/3 285/1/3
f 289/1/3 288/1/3 287/1/3
f 290/1/3 288/1/3 289/1/3
f 291/2/3 290/2/3 289/2/3
f 292/2/3 290/2/3 291/2/3
f 293/1/3 292/1/3 291/1/3
f 294/1/3 292/1/3 293/1/3
f 297/1/3 296/1/3 295/1/3
f 298/1/3 296/1/3 297/1/3
f 299/2/3 298/2/3 297/2/3
f 300/2/3 298/2/3 299/2/3
f 301/1/3 300/1/3 299/1/3
f 302/1/3 300/1/3 301/1/3
f 305/1/3 304/1/3 303/1/3
f 306/1/3 304/1/3 305/1/3
f 307/2/3 306/2/3 305/2/3
f 308/2/3 306/2/3 307/2/3
f 309/1/3 308/1/3 307/1/3
f 310/1/3 308/1/3 309/1/3
f 313/1/3 312/1/3 311/1/3
f 314/1/3 312/1/3 313/1/3
f 315/2/3 314/2/3 313/2/3
f 316/2/3 314/2/3 315/2/3
f 317/1/3 316/1/3 315/1/3
f 318/1/3 316/1/3 317/1/3
f 321/1/3 320/1/3 319/1/3
f 322/1/3 320/1/3 321/1/3
f 323/2/3 322/2/3 321/2/3
f 324/2/3 322/2/3 323/2/3
f 325/1/3 324/1/3 323/1/3
f 326/1/3 324/1/3 325/1/3
f 329/1/3 328/1/3 327/1/3
f 330/1/3 328/1/3 329/1/3
f 331/2/3 330/2/3 329/2/3
f 332/2/3 330/2/3 331/2/3
f 333/1/3 332/1/3 331/1/3
f 334/1/3 332/1/3 333/1/3
f 337/1/3 336/1/3 335/1/3
f 338/1/3 336/1/3 337/1/3
f 339/2/3 338/2/3 337/2/3
f 340/2/3 338/2/3 339/2/3
f 341/1/3 340/1/3 339/1/3
f 342/1/3 340/1/3 341/1/3
f 345/1/3 344/1/3 343/1/3
f 346/1/3 344/1/3 345/1/3
f 347/2/3 346/2/3 345/2/3
f 348/2/3 346/2/3 347/2/3
f 349/1/3 348/1/3 347/1/3
f 350/1/3 348/1/3 349/1/3
f 353/1/3 352/1/3 351/1/3
f 354/1/3 352/1/3 353/1/3
f 355/2/3 354/2/3 353/2/3
f 356/2/3 354/2/3 355/2/3
f 357/1/3 356/1/3 355/1/3
f 358/1/3 356/1/3 357/1/3
f 361/1/3 360/1/3 359/1/3
f 362/1/3 361/1/3 359/1/3
f 363/1/3 362/1/3 359/1/3
f 364/1/3 362/1/3 363/1/3
f 365/1/4 366/1/4 367/1/4
f 367/1/4 366/1/4 368/1/4
f 367/2/4 368/2/4 369/2/4
f 369/2/4 368/2/4 370/2/4
f 369/1/4 370/1/4 371/1/4
f 371/1/4 370/1/4 372/1/4
f 373/1/4 374/1/4 375/1/4
f 375/1/4 374/1/4 376/1/4
f 375/2/4 376/2/4 377/2/4
f 377/2/4 376/2/4 378/2/4
f 377/1/4 378/1/4 379/1/4
f 379/1/4 378/1/4 380/1/4
f 381/2/4 382/2/4 383/2/4
f 383/2/4 382/2/4 384/2/4
f 385/1/4 386/1/4 387/1/4
f 387/1/4 386/1/4 388/1/4
f 388/1/4 386/1/4 389/1/4
f 388/2/4 389/2/4 391/2/4
f 391/2/4 389/2/4 392/2/4
f 390/1/4 391/1/4 393/1/4
f 391/1/4 392/1/4 393/1/4
f 393/1/4 392/1/4 394/1/4
f 395/1/4 396/1/4 397/1/4
f 397/1/4 396/1/4 398/1/4
f 397/2/4 398/2/4 399/2/4
f 399/2/4 398/2/4 400/2/4
f 399/1/4 400/1/4 401/1/4
f 401/1/4 400/1/4 402/1/4
f 403/1/4 404/1/4 405/1/4
f 405/1/4 404/1/4 406/1/4
f 411/1/5 408/1/5 407/1/5
f 412/2/5 409/2/5 408/2/5
f 412/1/5 408/1/5 411/1/5
f 413/1/5 410/1/5 409/1/5
f 413/2/5 409/2/5 412/2/5
f 414/1/5 410/1/5 413/1/5
f 419/1/5 416/1/5 415/1/5
f 420/1/5 416/1/5 419/1/5
f 421/1/5 418/1/5 417/1/5
f 422/1/5 418/1/5 421/1/5
f 425/1/5 424/1/5 423/1/5
f 426/1/5 424/1/5 425/1/5
f 431/1/5 428/1/5 427/1/5
f 432/2/5 429/2/5 428/2/5
f 432/1/5 428/1/5 431/1/5
f 433/1/5 430/1/5 429/1/5
f 433/2/5 429/2/5 432/2/5
f 434/1/5 430/1/5 433/1/5
f 439/1/5 436/1/5 435/1/5
f 440/2/5 437/2/5 436/2/5
f 440/1/5 436/1/5 439/1/5
f 441/1/5 438/1/5 437/1/5
f 441/2/5 437/2/5 440/2/5
f 442/1/5 438/1/5 441/1/5
f 445/2/5 444/2/5 443/2/5
f 446/2/5 444/2/5 445/2/5
f 451/1/5 448/1/5 447/1/5
f 452/2/5 449/2/5 448/2/5
f 452/1/5 448/1/5 451/1/5
f 453/1/5 450/1/5 449/1/5
f 453/2/5 449/2/5 452/2/5
f 454/1/5 450/1/5 453/1/5
f 459/1/5 456/1/5 455/1/5
f 460/2/5 457/2/5 456/2/5
f 460/1/5 456/1/5 459/1/5
f 461/1/5 458/1/5 457/1/5
f 461/2/5 457/2/5 460/2/5
f 462/1/5 458/1/5 461/1/5
f 463/1/6 464/1/6 467/1/6
f 464/2/6 465/2/6 468/2/6
f 467/1/6 464/1/6 468/1/6
f 465/1/6 466/1/6 469/1/6
f 468/2/6 465/2/6 469/2/6
f 469/1/6 466/1/6 470/1/6
f 471/1/6 472/1/6 475/1/6
f 472/2/6 473/2/6 476/2/6
f 475/1/6 472/1/6 476/1/6
f 473/1/6 474/1/6 477/1/6
f 476/2/6 473/2/6 477/2/6
f 477/1/6 474/1/6 478/1/6
f 479/1/6 480/1/6 483/1/6
f 480/2/6 481/2/6 484/2/6
f 483/1/6 480/1/6 484/1/6
f 481/1/6 482/1/6 485/1/6
f 484/2/6 481/2/6 485/2/6
f 485/1/6 482/1/6 486/1/6
f 487/1/6 488/1/6 491/1/6
f 488/2/6 489/2/6 492/2/6
f 491/1/6 488/1/6 492/1/6
f 489/1/6 490/1/6 493/1/6
f 492/2/6 489/2/6 493/2/6
f 493/1/6 490/1/6 494/1/6
f 495/1/6 496/1/6 499/1/6
f 496/2/6 497/2/6 500/2/6
f 499/1/6 496/1/6 500/1/6
f 497/1/6 498/1/6 501/1/6
f 500/2/6 497/2/6 501/2/6
f 501/1/6 498/1/6 502/1/6
f 503/1/6 504/1/6 507/1/6
f 504/2/6 505/2/6 508/2/6
f 507/1/6 504/1/6 508/1/6
f 505/1/6 506/1/6 509/1/6
f 508/2/6 505/2/6 509/2/6
f 509/1/6 506/1/6 510/1/6
f 511/1/6 512/1/6 515/1/6
f 512/2/6 513/2/6 516/2/6
f 515/1/6 512/1/6 516/1/6
f 513/1/6 514/1/6 517/1/6
f 516/2/6 513/2/6 517/2/6
f 517/1/6 514/1/6 518/1/6
f 519/1/6 520/1/6 523/1/6
f 520/2/6 521/2/6 524/2/6
f 523/1/6 520/1/6 524/1/6
f 521/1/6 522/1/6 525/1/6
f 524/2/6 521/2/6 525/2/6
f 525/1/6 522/1/6 526/1/6
f 527/1/6 528/1/6 531/1/6
f 528/2/6 529/2/6 532/2/6
f 531/1/6 528/1/6 532/1/6
f 529/1/6 530/1/6 533/1/6
f 532/2/6 529/2/6 533/2/6
f 533/1/6 530/1/6 534/1/6
f 535/1/6 536/1/6 539/1/6
f 536/2/6 537/2/6 540/2/6
f 539/1/6 536/1/6 540/1/6
f 537/1/6 538/1/6 541/1/6
f 540/2/6 537/2/6 541/2/6
f 541/1/6 538/1/6 542/1/6
f 543/1/6 544/1/6 547/1/6
f 544/2/6 545/2/6 548/2/6
f 547/1/6 544/1/6 548/1/6
f 545/1/6 546/1/6 549/1/6
f 548/2/6 545/2/6 549/2/6
f 549/1/6 546/1/6 550/1/6
f 551/1/6 552/1/6 555/1/6
f 552/2/6 553/2/6 556/2/6
f 555/1/6 552/1/6 556/1/6
f 553/1/6 554/1/6 557/1/6
f 556/2/6 553/2/6 557/2/6
f 557/1/6 554/1/6 558/1/6
f 559/1/6 560/1/6 563/1/6
f 560/2/6 561/2/6 564/2/6
f 563/1/6 560/1/6 564/1/6
f 561/1/6 562/1/6 565/1/6
f 564/2/6 561/2/6 565/2/6
f 565/1/6 562/1/6 566/1/6
f 567/1/6 568/1/6 571/1/6
f 568/2/6 569/2/6 572/2/6
f 571/1/6 568/1/6 572/1/6
f 569/1/6 570/1/6 573/1/6
f 572/2/6 569/2/6 573/2/6
f 573/1/6 570/1/6 574/1/6
f 575/1/6 576/1/6 579/1/6
f 576/2/6 577/2/6 580/2/6
f 579/1/6 576/1/6 580/1/6
f 577/1/6 578/1/6 581/1/6
f 580/2/6 577/2/6 581/2/6
f 581/1/6 578/1/6 582/1/6
f 583/1/6 584/1/6 587/1/6
f 584/2/6 585/2/6 588/2/6
f 587/1/6 584/1/6 588/1/6
f 585/1/6 586/1/6 589/1/6
f 588/2/6 585/2/6 589/2/6
f 589/1/6 586/1/6 590/1/6
f 591/1/6 592/1/6 595/1/6
f 592/2/6 593/2/6 596/2/6
f 595/1/6 592/1/6 596/1/6
f 593/1/6 594/1/6 597/1/6
f 596/2/6 593/2/6 597/2/6
f 597/1/6 594/1/6 598/1/6
f 599/1/6 600/1/6 603/1/6
f 600/2/6 601/2/6 604/2/6
f 603/1/6 600/1/6 604/1/6
f 601/1/6 602/1/6 605/1/6
f 604/2/6 601/2/6 605/2/6
f 605/1/6 602/1/6 606/1/6
f 607/1/6 608/1/6 611/1/6
f 608/2/6 609/2/6 612/2/6
f 611/1/6 608/1/6 612/1/6
f 609/1/6 610/1/6 613/1/6
f 612/2/6 609/2/6 613/2/6
f 613/1/6 610/1/6 614/1/6
f 615/1/6 616/1/6 619/1/6
f 616/2/6 617/2/6 620/2/6
f 619/1/6 616/1/6 620/1/6
f 617/1/6 618/1/6 621/1/6
f 620/2/6 617/2/6 621/2/6
f 621/1/6 618/1/6 622/1/6
f 623/1/6 624/1/6 627/1/6
f 624/2/6 625/2/6 628/2/6
f 627/1/6 624/1/6 628/1/6
f 625/1/6 626/1/6 629/1/6
f 628/2/6 625/2/6 629/2/6
f 629/1/6 626/1/6 630/1/6
f 631/1/6 632/1/6 635/1/6
f 632/2/6 633/2/6 636/2/6
f 635/1/6 632/1/6 636/1/6
f 633/1/6 634/1/6 637/1/6
f 636/2/6 633/2/6 637/2/6
f 637/1/6 634/1/6 638/1/6
f 639/1/6 640/1/6 643/1/6
f 640/2/6 641/2/6 644/2/6
f 643/1/6 640/1/6 644/1/6
f 641/1/6 642/1/6 645/1/6
f 644/2/6 641/2/6 645/2/6
f 645/1/6 642/1/6 646/1/6
f 647/1/6 648/1/6 651/1/6
f 648/2/6 649/2/6 652/2/6
f 651/1/6 648/1/6 652/1/6
f 649/1/6 650/1/6 653/1/6
f 652/2/6 649/2/6 653/2/6
f 653/1/6 650/1/6 654/1/6
f 655/1/6 656/1/6 659/1/6
f 656/2/6 657/2/6 660/2/6
f 659/1/6 656/1/6 660/1/6
f 657/1/6 658/1/6 661/1/6
f 660/2/6 657/2/6 661/2/6
f 661/1/6 658/1/6 662/1/6
f 663/1/6 664/1/6 667/1/6
f 664/2/6 665/2/6 667/2/6
f 665/1/6 666/1/6 668/1/6
f 667/2/6 665/2/6 668/2/6
f 663/1/6 667/1/6 669/1/6
f 667/1/6 668/1/6 669/1/6
f 668/1/6 666/1/6 670/1/6
f 669/1/6 668/1/6 670/1/6
